<svg width="1045" height="320" viewBox="0 0 1045 320" fill="none" xmlns="http://www.w3.org/2000/svg">
<path fill-rule="evenodd" clip-rule="evenodd" d="M9.2698 99H294.723L312.234 215.273C312.723 222.597 310.021 229.993 304.839 235.184L265.514 274.935C260.741 279.717 254.27 283.273 247.514 283.273H182.786C168.723 283.273 152.981 270.126 152.981 256.073V255.61C152.981 250.056 156.895 244.851 160.088 240.605L160.088 240.605L160.288 240.339L75.9944 236.224C73.9944 236.135 69.0077 236.055 62.9899 235.984C43.5233 235.762 27.1144 221.37 24.4033 202.09L8.74995 103.006C8.84707 101.648 9.02179 100.311 9.2698 99ZM84.5458 137.592L139.983 152.446C139.994 152.788 140 153.132 140 153.477C140 170.045 126.568 183.477 110 183.477C93.4314 183.477 80 170.045 80 153.477C80 147.643 81.665 142.198 84.5458 137.592ZM180.019 152.4L235.429 137.553C238.325 142.168 240 147.627 240 153.477C240 170.045 226.568 183.477 210 183.477C193.431 183.477 180 170.045 180 153.477C180 153.116 180.006 152.757 180.019 152.4Z" fill="black"/>
<path fill-rule="evenodd" clip-rule="evenodd" d="M288.328 82.0258C288.569 83.4188 289.198 84.7073 290.018 85.8593C292.71 89.6425 294.372 94.0776 294.688 98.766L295.899 106.809C296.628 111.647 292.881 116 287.988 116H17.6382C13.7018 116 10.3504 113.136 9.73616 109.248L8.89297 103.911C8.79797 103.31 8.76814 102.697 8.8274 102.091C10.4271 85.7347 23.3039 72.6711 39.7278 70.9082L87.1856 63.328C89.9771 62.8821 92.7967 63.9426 94.6025 66.1175L105.915 79.7431C107.719 81.9152 110.533 82.9759 113.322 82.5343L203.656 68.2267C205.851 67.8792 207.802 66.6347 209.042 64.7913L222.878 44.2296C224.116 42.3892 226.063 41.1457 228.253 40.7958L247.639 37.6994C265.683 35.7705 282.181 48.0371 285.523 65.8683L288.328 82.0258Z" fill="black"/>
<path d="M405.2 224V104H441.867C450.578 104 458 105.733 464.133 109.2C470.356 112.667 475.111 117.289 478.4 123.067C481.689 128.756 483.333 135.022 483.333 141.867C483.333 148.089 481.956 153.733 479.2 158.8C476.533 163.867 472.711 168.044 467.733 171.333L499.467 224H473.2L446.533 178.4H428.4V224H405.2ZM428.4 158.4H441.333C445.689 158.4 449.244 157.6 452 156C454.756 154.311 456.8 152.222 458.133 149.733C459.467 147.156 460.133 144.533 460.133 141.867C460.133 137.156 458.4 133.289 454.933 130.267C451.467 127.156 446.933 125.6 441.333 125.6H428.4V158.4ZM543.704 226.667C534.726 226.667 526.815 224.8 519.971 221.067C513.126 217.333 507.793 212.222 503.971 205.733C500.149 199.156 498.238 191.644 498.238 183.2C498.238 175.111 500.104 167.956 503.838 161.733C507.571 155.422 512.593 150.444 518.904 146.8C525.304 143.156 532.371 141.333 540.104 141.333C548.015 141.333 555.082 143.156 561.304 146.8C567.526 150.356 572.415 155.244 575.971 161.467C579.615 167.689 581.438 174.756 581.438 182.667V190.8H532.637C530.415 190.8 528.282 190.667 526.238 190.4C524.193 190.133 522.149 189.822 520.104 189.467C521.171 194.8 523.793 199.156 527.971 202.533C532.238 205.822 537.66 207.467 544.238 207.467C549.304 207.467 553.838 206.444 557.838 204.4C561.926 202.356 565.26 199.822 567.838 196.8L572.904 217.6C568.904 220.622 564.371 222.889 559.304 224.4C554.326 225.911 549.126 226.667 543.704 226.667ZM519.571 175.467C524.015 174.489 528.371 174 532.637 174H546.771C549.26 174 551.615 174.089 553.837 174.267C556.06 174.444 558.149 174.756 560.104 175.2C558.771 170.4 556.326 166.622 552.771 163.867C549.304 161.111 544.993 159.733 539.838 159.733C534.949 159.733 530.682 161.156 527.037 164C523.482 166.756 520.993 170.578 519.571 175.467ZM627.542 228L583.675 144H609.408L621.942 169.733C623.097 171.956 624.164 174.178 625.142 176.4C626.119 178.533 627.097 180.978 628.075 183.733C629.053 180.978 630.031 178.533 631.008 176.4C631.986 174.178 633.053 171.956 634.208 169.733L646.742 144H671.408L627.542 228ZM718.454 226.667C709.476 226.667 701.565 224.8 694.721 221.067C687.876 217.333 682.543 212.222 678.721 205.733C674.899 199.156 672.988 191.644 672.988 183.2C672.988 175.111 674.854 167.956 678.588 161.733C682.321 155.422 687.343 150.444 693.654 146.8C700.054 143.156 707.121 141.333 714.854 141.333C722.765 141.333 729.832 143.156 736.054 146.8C742.276 150.356 747.165 155.244 750.721 161.467C754.365 167.689 756.188 174.756 756.188 182.667V190.8H707.387C705.165 190.8 703.032 190.667 700.988 190.4C698.943 190.133 696.899 189.822 694.854 189.467C695.921 194.8 698.543 199.156 702.721 202.533C706.988 205.822 712.41 207.467 718.988 207.467C724.054 207.467 728.588 206.444 732.588 204.4C736.676 202.356 740.01 199.822 742.588 196.8L747.654 217.6C743.654 220.622 739.121 222.889 734.054 224.4C729.076 225.911 723.876 226.667 718.454 226.667ZM694.321 175.467C698.765 174.489 703.121 174 707.387 174H721.521C724.01 174 726.365 174.089 728.587 174.267C730.81 174.444 732.899 174.756 734.854 175.2C733.521 170.4 731.076 166.622 727.521 163.867C724.054 161.111 719.743 159.733 714.588 159.733C709.699 159.733 705.432 161.156 701.787 164C698.232 166.756 695.743 170.578 694.321 175.467ZM769.05 224V144H789.85V152.8C792.694 149.067 796.206 146.222 800.383 144.267C804.561 142.311 809.05 141.333 813.85 141.333C819.539 141.333 824.828 142.711 829.717 145.467C834.694 148.133 838.694 152.089 841.717 157.333C844.828 162.489 846.383 168.756 846.383 176.133V224H823.183V179.2C823.183 174.756 821.85 170.8 819.183 167.333C816.517 163.867 812.694 162.133 807.717 162.133C803.717 162.133 800.117 163.511 796.917 166.267C793.806 168.933 792.25 173.156 792.25 178.933V224H769.05ZM897.358 266.667C891.136 266.667 885.181 265.733 879.492 263.867C873.892 262.089 869.047 259.644 864.958 256.533L870.558 233.6C873.403 237.422 877.136 240.533 881.758 242.933C886.381 245.422 891.581 246.667 897.358 246.667C905.536 246.667 911.892 244.311 916.425 239.6C920.958 234.978 923.225 229.022 923.225 221.733V216.133C920.203 219.244 916.558 221.689 912.292 223.467C908.114 225.244 903.492 226.133 898.425 226.133C891.047 226.133 884.336 224.222 878.292 220.4C872.247 216.578 867.403 211.511 863.758 205.2C860.203 198.8 858.425 191.733 858.425 184C858.425 176.267 860.203 169.2 863.758 162.8C867.403 156.4 872.247 151.333 878.292 147.6C884.336 143.778 891.047 141.867 898.425 141.867C903.581 141.867 908.292 142.8 912.558 144.667C916.825 146.444 920.469 148.933 923.492 152.133V144H943.492V225.067C943.492 233.778 941.358 241.244 937.092 247.467C932.825 253.689 927.181 258.444 920.158 261.733C913.136 265.022 905.536 266.667 897.358 266.667ZM901.225 205.733C905.136 205.733 908.692 204.756 911.892 202.8C915.092 200.844 917.625 198.222 919.492 194.933C921.447 191.644 922.425 188 922.425 184C922.425 180 921.447 176.356 919.492 173.067C917.625 169.778 915.092 167.156 911.892 165.2C908.692 163.244 905.136 162.267 901.225 162.267C897.314 162.267 893.758 163.244 890.558 165.2C887.358 167.156 884.781 169.778 882.825 173.067C880.958 176.356 880.025 180 880.025 184C880.025 188 880.958 191.644 882.825 194.933C884.781 198.222 887.358 200.844 890.558 202.8C893.758 204.756 897.314 205.733 901.225 205.733ZM1002.52 226.667C993.539 226.667 985.628 224.8 978.783 221.067C971.939 217.333 966.606 212.222 962.783 205.733C958.961 199.156 957.05 191.644 957.05 183.2C957.05 175.111 958.917 167.956 962.65 161.733C966.383 155.422 971.406 150.444 977.717 146.8C984.117 143.156 991.183 141.333 998.917 141.333C1006.83 141.333 1013.89 143.156 1020.12 146.8C1026.34 150.356 1031.23 155.244 1034.78 161.467C1038.43 167.689 1040.25 174.756 1040.25 182.667V190.8H991.45C989.228 190.8 987.094 190.667 985.05 190.4C983.006 190.133 980.961 189.822 978.917 189.467C979.983 194.8 982.606 199.156 986.783 202.533C991.05 205.822 996.472 207.467 1003.05 207.467C1008.12 207.467 1012.65 206.444 1016.65 204.4C1020.74 202.356 1024.07 199.822 1026.65 196.8L1031.72 217.6C1027.72 220.622 1023.18 222.889 1018.12 224.4C1013.14 225.911 1007.94 226.667 1002.52 226.667ZM978.383 175.467C982.828 174.489 987.183 174 991.45 174H1005.58C1008.07 174 1010.43 174.089 1012.65 174.267C1014.87 174.444 1016.96 174.756 1018.92 175.2C1017.58 170.4 1015.14 166.622 1011.58 163.867C1008.12 161.111 1003.81 159.733 998.65 159.733C993.761 159.733 989.494 161.156 985.85 164C982.294 166.756 979.806 170.578 978.383 175.467Z" fill="black"/>
</svg>
