<svg width="1028" height="320" viewBox="0 0 1028 320" fill="none" xmlns="http://www.w3.org/2000/svg">
<path fill-rule="evenodd" clip-rule="evenodd" d="M9.2698 99H294.723L312.234 215.273C312.723 222.597 310.021 229.993 304.839 235.184L265.514 274.935C260.741 279.717 254.27 283.273 247.514 283.273H182.786C168.723 283.273 152.981 270.126 152.981 256.073V255.61C152.981 250.056 156.895 244.851 160.088 240.605L160.088 240.605L160.288 240.339L75.9944 236.224C73.9944 236.135 69.0077 236.055 62.9899 235.984C43.5233 235.762 27.1144 221.37 24.4033 202.09L8.74995 103.006C8.84707 101.648 9.02179 100.311 9.2698 99ZM84.5458 137.592L139.983 152.446C139.994 152.788 140 153.132 140 153.477C140 170.045 126.568 183.477 110 183.477C93.4314 183.477 80 170.045 80 153.477C80 147.643 81.665 142.198 84.5458 137.592ZM180.019 152.4L235.429 137.553C238.325 142.168 240 147.627 240 153.477C240 170.045 226.568 183.477 210 183.477C193.431 183.477 180 170.045 180 153.477C180 153.116 180.006 152.757 180.019 152.4Z" fill="black"/>
<path fill-rule="evenodd" clip-rule="evenodd" d="M288.328 82.0258C288.569 83.4188 289.198 84.7073 290.018 85.8593C292.71 89.6425 294.372 94.0776 294.688 98.766L295.899 106.809C296.628 111.647 292.881 116 287.988 116H17.6382C13.7018 116 10.3504 113.136 9.73616 109.248L8.89297 103.911C8.79797 103.31 8.76814 102.697 8.8274 102.091C10.4271 85.7347 23.3039 72.6711 39.7278 70.9082L87.1856 63.328C89.9771 62.8821 92.7967 63.9426 94.6025 66.1175L105.915 79.7431C107.719 81.9152 110.533 82.9759 113.322 82.5343L203.656 68.2267C205.851 67.8792 207.802 66.6347 209.042 64.7913L222.878 44.2296C224.116 42.3892 226.063 41.1457 228.253 40.7958L247.639 37.6994C265.683 35.7705 282.181 48.0371 285.523 65.8683L288.328 82.0258Z" fill="black"/>
<path d="M392 218.667V98.6667H428.667C437.378 98.6667 444.8 100.4 450.933 103.867C457.156 107.333 461.911 111.956 465.2 117.733C468.489 123.422 470.133 129.689 470.133 136.533C470.133 142.756 468.756 148.4 466 153.467C463.333 158.533 459.511 162.711 454.533 166L486.267 218.667H460L433.333 173.067H415.2V218.667H392ZM415.2 153.067H428.133C432.489 153.067 436.044 152.267 438.8 150.667C441.556 148.978 443.6 146.889 444.933 144.4C446.267 141.822 446.933 139.2 446.933 136.533C446.933 131.822 445.2 127.956 441.733 124.933C438.267 121.822 433.733 120.267 428.133 120.267H415.2V153.067Z" fill="black"/>
<path d="M530.504 221.333C521.526 221.333 513.615 219.467 506.771 215.733C499.926 212 494.593 206.889 490.771 200.4C486.949 193.822 485.037 186.311 485.037 177.867C485.037 169.778 486.904 162.622 490.637 156.4C494.371 150.089 499.393 145.111 505.704 141.467C512.104 137.822 519.171 136 526.904 136C534.815 136 541.882 137.822 548.104 141.467C554.326 145.022 559.215 149.911 562.771 156.133C566.415 162.356 568.238 169.422 568.238 177.333V185.467H519.438C517.215 185.467 515.082 185.333 513.037 185.067C510.993 184.8 508.949 184.489 506.904 184.133C507.971 189.467 510.593 193.822 514.771 197.2C519.038 200.489 524.46 202.133 531.038 202.133C536.104 202.133 540.637 201.111 544.637 199.067C548.726 197.022 552.06 194.489 554.637 191.467L559.704 212.267C555.704 215.289 551.171 217.556 546.104 219.067C541.126 220.578 535.926 221.333 530.504 221.333ZM506.371 170.133C510.815 169.156 515.171 168.667 519.438 168.667H533.571C536.06 168.667 538.415 168.756 540.637 168.933C542.86 169.111 544.949 169.422 546.904 169.867C545.571 165.067 543.126 161.289 539.571 158.533C536.104 155.778 531.793 154.4 526.637 154.4C521.749 154.4 517.482 155.822 513.838 158.667C510.282 161.422 507.793 165.245 506.371 170.133Z" fill="black"/>
<path d="M614.342 222.667L570.475 138.667H596.208L608.742 164.4C609.897 166.622 610.964 168.845 611.942 171.067C612.919 173.2 613.897 175.645 614.875 178.4C615.853 175.645 616.831 173.2 617.808 171.067C618.786 168.845 619.853 166.622 621.008 164.4L633.542 138.667H658.208L614.342 222.667Z" fill="black"/>
<path d="M705.254 221.333C696.276 221.333 688.365 219.467 681.521 215.733C674.676 212 669.343 206.889 665.521 200.4C661.699 193.822 659.788 186.311 659.788 177.867C659.788 169.778 661.654 162.622 665.388 156.4C669.121 150.089 674.143 145.111 680.454 141.467C686.854 137.822 693.921 136 701.654 136C709.565 136 716.632 137.822 722.854 141.467C729.076 145.022 733.965 149.911 737.521 156.133C741.165 162.356 742.987 169.422 742.987 177.333V185.467H694.188C691.965 185.467 689.832 185.333 687.788 185.067C685.743 184.8 683.699 184.489 681.654 184.133C682.721 189.467 685.343 193.822 689.521 197.2C693.788 200.489 699.21 202.133 705.788 202.133C710.854 202.133 715.388 201.111 719.388 199.067C723.476 197.022 726.81 194.489 729.388 191.467L734.454 212.267C730.454 215.289 725.921 217.556 720.854 219.067C715.876 220.578 710.676 221.333 705.254 221.333ZM681.121 170.133C685.565 169.156 689.921 168.667 694.188 168.667H708.321C710.81 168.667 713.165 168.756 715.388 168.933C717.61 169.111 719.699 169.422 721.654 169.867C720.321 165.067 717.876 161.289 714.321 158.533C710.854 155.778 706.543 154.4 701.388 154.4C696.499 154.4 692.232 155.822 688.587 158.667C685.032 161.422 682.543 165.245 681.121 170.133Z" fill="black"/>
<path d="M755.85 218.667V138.667H776.65V147.467C779.494 143.733 783.006 140.889 787.183 138.933C791.361 136.978 795.85 136 800.65 136C806.339 136 811.628 137.378 816.517 140.133C821.494 142.8 825.494 146.756 828.517 152C831.628 157.156 833.183 163.422 833.183 170.8V218.667H809.983V173.867C809.983 169.422 808.65 165.467 805.983 162C803.317 158.533 799.494 156.8 794.517 156.8C790.517 156.8 786.917 158.178 783.717 160.933C780.606 163.6 779.05 167.822 779.05 173.6V218.667H755.85Z" fill="black"/>
<path d="M884.158 261.333C877.936 261.333 871.981 260.4 866.292 258.533C860.692 256.756 855.847 254.311 851.758 251.2L857.358 228.267C860.203 232.089 863.936 235.2 868.558 237.6C873.181 240.089 878.381 241.333 884.158 241.333C892.336 241.333 898.692 238.978 903.225 234.267C907.758 229.645 910.025 223.689 910.025 216.4V210.8C907.003 213.911 903.358 216.356 899.092 218.133C894.914 219.911 890.292 220.8 885.225 220.8C877.847 220.8 871.136 218.889 865.092 215.067C859.047 211.245 854.203 206.178 850.558 199.867C847.003 193.467 845.225 186.4 845.225 178.667C845.225 170.933 847.003 163.867 850.558 157.467C854.203 151.067 859.047 146 865.092 142.267C871.136 138.445 877.847 136.533 885.225 136.533C890.381 136.533 895.092 137.467 899.358 139.333C903.625 141.111 907.269 143.6 910.292 146.8V138.667H930.292V219.733C930.292 228.445 928.158 235.911 923.892 242.133C919.625 248.356 913.981 253.111 906.958 256.4C899.936 259.689 892.336 261.333 884.158 261.333ZM888.025 200.4C891.936 200.4 895.492 199.422 898.692 197.467C901.892 195.511 904.425 192.889 906.292 189.6C908.247 186.311 909.225 182.667 909.225 178.667C909.225 174.667 908.247 171.022 906.292 167.733C904.425 164.445 901.892 161.822 898.692 159.867C895.492 157.911 891.936 156.933 888.025 156.933C884.114 156.933 880.558 157.911 877.358 159.867C874.158 161.822 871.581 164.445 869.625 167.733C867.758 171.022 866.825 174.667 866.825 178.667C866.825 182.667 867.758 186.311 869.625 189.6C871.581 192.889 874.158 195.511 877.358 197.467C880.558 199.422 884.114 200.4 888.025 200.4Z" fill="black"/>
<path d="M989.317 221.333C980.339 221.333 972.428 219.467 965.583 215.733C958.739 212 953.406 206.889 949.583 200.4C945.761 193.822 943.85 186.311 943.85 177.867C943.85 169.778 945.717 162.622 949.45 156.4C953.183 150.089 958.206 145.111 964.517 141.467C970.917 137.822 977.983 136 985.717 136C993.628 136 1000.69 137.822 1006.92 141.467C1013.14 145.022 1018.03 149.911 1021.58 156.133C1025.23 162.356 1027.05 169.422 1027.05 177.333V185.467H978.25C976.028 185.467 973.894 185.333 971.85 185.067C969.806 184.8 967.761 184.489 965.717 184.133C966.783 189.467 969.406 193.822 973.583 197.2C977.85 200.489 983.272 202.133 989.85 202.133C994.917 202.133 999.45 201.111 1003.45 199.067C1007.54 197.022 1010.87 194.489 1013.45 191.467L1018.52 212.267C1014.52 215.289 1009.98 217.556 1004.92 219.067C999.939 220.578 994.739 221.333 989.317 221.333ZM965.183 170.133C969.628 169.156 973.983 168.667 978.25 168.667H992.383C994.872 168.667 997.228 168.756 999.45 168.933C1001.67 169.111 1003.76 169.422 1005.72 169.867C1004.38 165.067 1001.94 161.289 998.383 158.533C994.917 155.778 990.606 154.4 985.45 154.4C980.561 154.4 976.294 155.822 972.65 158.667C969.094 161.422 966.606 165.245 965.183 170.133Z" fill="black"/>
</svg>
