<svg width="320" height="320" viewBox="0 0 320 320" fill="none" xmlns="http://www.w3.org/2000/svg">
<path fill-rule="evenodd" clip-rule="evenodd" d="M8.893 103.911C8.79803 103.31 8.76822 102.697 8.82748 102.091C8.79776 102.395 8.77189 102.7 8.75 103.006L8.893 103.911Z" fill="black"/>
<path fill-rule="evenodd" clip-rule="evenodd" d="M295.9 106.822C295.9 106.817 295.899 106.813 295.898 106.809L295.9 106.822Z" fill="black"/>
<path fill-rule="evenodd" clip-rule="evenodd" d="M294.688 98.766C294.372 94.0776 292.71 89.6425 290.018 85.8593C289.198 84.7073 288.569 83.4188 288.328 82.0258L285.523 65.8683C282.181 48.0371 265.683 35.7705 247.639 37.6994L228.253 40.7958C226.063 41.1457 224.116 42.3892 222.878 44.2296L209.042 64.7913C207.802 66.6347 205.851 67.8792 203.656 68.2267L113.322 82.5343C110.533 82.9759 107.719 81.9152 105.915 79.7431L94.6025 66.1175C92.7967 63.9426 89.9772 62.8821 87.1856 63.328L39.7278 70.9082C24.3526 72.5585 12.086 84.1124 9.26976 99C9.07765 100.015 8.92955 101.047 8.82739 102.091C8.76812 102.697 8.79795 103.31 8.89296 103.911L9.73614 109.248L24.4033 202.09C27.1144 221.37 43.5233 235.762 62.9899 235.984C69.0077 236.055 73.9944 236.135 75.9944 236.224L160.288 240.339L160.088 240.605C156.895 244.851 152.981 250.056 152.981 255.61V256.073C152.981 270.126 168.723 283.273 182.785 283.273H247.514C254.27 283.273 260.741 279.717 265.514 274.935L304.839 235.184C310.021 229.993 312.723 222.597 312.234 215.273L295.899 106.81L294.688 98.766ZM84.5458 137.592L139.983 152.446C139.994 152.788 140 153.132 140 153.477C140 170.045 126.568 183.477 110 183.477C93.4314 183.477 79.9999 170.045 79.9999 153.477C79.9999 147.643 81.665 142.198 84.5458 137.592ZM180.019 152.4L235.429 137.553C238.325 142.168 240 147.627 240 153.477C240 170.045 226.568 183.477 210 183.477C193.431 183.477 180 170.045 180 153.477C180 153.116 180.006 152.757 180.019 152.4Z" fill="black"/>
</svg>
