<svg width="845" height="320" viewBox="0 0 845 320" fill="none" xmlns="http://www.w3.org/2000/svg">
<path fill-rule="evenodd" clip-rule="evenodd" d="M8.89292 103.91C8.798 103.31 8.76821 102.697 8.82745 102.091C8.79772 102.395 8.77189 102.7 8.75 103.006L8.89292 103.91Z" fill="white"/>
<path d="M392 149.778V69.7778H416.444C422.252 69.7778 427.2 70.9334 431.289 73.2445C435.437 75.5556 438.607 78.6371 440.8 82.4889C442.993 86.2815 444.089 90.4593 444.089 95.0223C444.089 99.1704 443.17 102.933 441.333 106.311C439.556 109.689 437.007 112.474 433.689 114.667L454.844 149.778H437.333L419.556 119.378H407.467V149.778H392ZM407.467 106.044H416.089C418.993 106.044 421.363 105.511 423.2 104.444C425.037 103.319 426.4 101.926 427.289 100.267C428.178 98.5482 428.622 96.8001 428.622 95.0223C428.622 91.8815 427.467 89.3038 425.156 87.2889C422.844 85.2149 419.822 84.1778 416.089 84.1778H407.467V106.044Z" fill="white"/>
<path d="M484.336 151.556C478.351 151.556 473.077 150.311 468.514 147.822C463.951 145.333 460.395 141.926 457.847 137.6C455.299 133.215 454.025 128.207 454.025 122.578C454.025 117.185 455.269 112.415 457.758 108.267C460.247 104.059 463.595 100.741 467.803 98.3112C472.069 95.8815 476.781 94.6667 481.936 94.6667C487.21 94.6667 491.921 95.8815 496.069 98.3112C500.218 100.682 503.477 103.941 505.847 108.089C508.277 112.237 509.492 116.948 509.492 122.222V127.645H476.958C475.477 127.645 474.055 127.556 472.692 127.378C471.329 127.2 469.966 126.993 468.603 126.756C469.314 130.311 471.062 133.215 473.847 135.467C476.692 137.659 480.306 138.756 484.692 138.756C488.069 138.756 491.092 138.074 493.758 136.711C496.484 135.348 498.706 133.659 500.425 131.645L503.803 145.511C501.136 147.526 498.114 149.037 494.736 150.045C491.418 151.052 487.951 151.556 484.336 151.556ZM468.247 117.422C471.21 116.77 474.114 116.444 476.958 116.444H486.381C488.04 116.444 489.61 116.504 491.092 116.622C492.573 116.741 493.966 116.948 495.269 117.244C494.381 114.044 492.751 111.526 490.381 109.689C488.069 107.852 485.195 106.933 481.758 106.933C478.499 106.933 475.655 107.882 473.225 109.778C470.855 111.615 469.195 114.163 468.247 117.422Z" fill="white"/>
<path d="M540.227 152.444L510.982 96.4445H528.138L536.493 113.6C537.264 115.082 537.975 116.563 538.627 118.044C539.279 119.467 539.93 121.096 540.582 122.933C541.234 121.096 541.886 119.467 542.538 118.044C543.19 116.563 543.901 115.082 544.671 113.6L553.027 96.4445H569.471L540.227 152.444Z" fill="white"/>
<path d="M600.836 151.556C594.851 151.556 589.577 150.311 585.014 147.822C580.451 145.333 576.895 141.926 574.347 137.6C571.799 133.215 570.525 128.207 570.525 122.578C570.525 117.185 571.769 112.415 574.258 108.267C576.747 104.059 580.095 100.741 584.303 98.3112C588.569 95.8815 593.281 94.6667 598.436 94.6667C603.71 94.6667 608.421 95.8815 612.569 98.3112C616.718 100.682 619.977 103.941 622.347 108.089C624.777 112.237 625.992 116.948 625.992 122.222V127.645H593.458C591.977 127.645 590.555 127.556 589.192 127.378C587.829 127.2 586.466 126.993 585.103 126.756C585.814 130.311 587.562 133.215 590.347 135.467C593.192 137.659 596.806 138.756 601.192 138.756C604.569 138.756 607.592 138.074 610.258 136.711C612.984 135.348 615.206 133.659 616.925 131.645L620.303 145.511C617.636 147.526 614.614 149.037 611.236 150.045C607.918 151.052 604.451 151.556 600.836 151.556ZM584.747 117.422C587.71 116.77 590.614 116.444 593.458 116.444H602.881C604.54 116.444 606.11 116.504 607.592 116.622C609.073 116.741 610.466 116.948 611.769 117.244C610.881 114.044 609.251 111.526 606.881 109.689C604.569 107.852 601.695 106.933 598.258 106.933C594.999 106.933 592.155 107.882 589.725 109.778C587.355 111.615 585.695 114.163 584.747 117.422Z" fill="white"/>
<path d="M634.566 149.778V96.4445H648.432V102.311C650.329 99.8223 652.669 97.926 655.455 96.6223C658.24 95.3186 661.232 94.6667 664.432 94.6667C668.225 94.6667 671.751 95.5852 675.01 97.4223C678.329 99.2001 680.995 101.837 683.01 105.333C685.084 108.77 686.121 112.948 686.121 117.867V149.778H670.655V119.911C670.655 116.948 669.766 114.311 667.988 112C666.21 109.689 663.662 108.533 660.343 108.533C657.677 108.533 655.277 109.452 653.143 111.289C651.069 113.067 650.032 115.882 650.032 119.733V149.778H634.566Z" fill="white"/>
<path d="M720.106 178.222C715.957 178.222 711.987 177.6 708.194 176.356C704.461 175.17 701.231 173.541 698.506 171.467L702.239 156.178C704.135 158.726 706.624 160.8 709.706 162.4C712.787 164.059 716.254 164.889 720.106 164.889C725.557 164.889 729.794 163.319 732.817 160.178C735.839 157.096 737.35 153.126 737.35 148.267V144.533C735.335 146.607 732.906 148.237 730.061 149.422C727.276 150.607 724.194 151.2 720.817 151.2C715.898 151.2 711.424 149.926 707.394 147.378C703.365 144.83 700.135 141.452 697.706 137.244C695.335 132.978 694.15 128.267 694.15 123.111C694.15 117.956 695.335 113.244 697.706 108.978C700.135 104.711 703.365 101.333 707.394 98.8445C711.424 96.2963 715.898 95.0223 720.817 95.0223C724.254 95.0223 727.394 95.6445 730.239 96.8889C733.083 98.0741 735.513 99.7334 737.528 101.867V96.4445H750.861V150.489C750.861 156.296 749.439 161.274 746.594 165.422C743.75 169.57 739.987 172.741 735.306 174.933C730.624 177.126 725.557 178.222 720.106 178.222ZM722.683 137.6C725.291 137.6 727.661 136.948 729.794 135.645C731.928 134.341 733.617 132.593 734.861 130.4C736.165 128.207 736.817 125.778 736.817 123.111C736.817 120.444 736.165 118.015 734.861 115.822C733.617 113.63 731.928 111.882 729.794 110.578C727.661 109.274 725.291 108.622 722.683 108.622C720.076 108.622 717.706 109.274 715.572 110.578C713.439 111.882 711.72 113.63 710.417 115.822C709.172 118.015 708.55 120.444 708.55 123.111C708.55 125.778 709.172 128.207 710.417 130.4C711.72 132.593 713.439 134.341 715.572 135.645C717.706 136.948 720.076 137.6 722.683 137.6Z" fill="white"/>
<path d="M790.211 151.556C784.226 151.556 778.952 150.311 774.389 147.822C769.826 145.333 766.27 141.926 763.722 137.6C761.174 133.215 759.9 128.207 759.9 122.578C759.9 117.185 761.144 112.415 763.633 108.267C766.122 104.059 769.47 100.741 773.678 98.3112C777.944 95.8815 782.656 94.6667 787.811 94.6667C793.085 94.6667 797.796 95.8815 801.944 98.3112C806.093 100.682 809.352 103.941 811.722 108.089C814.152 112.237 815.367 116.948 815.367 122.222V127.645H782.833C781.352 127.645 779.93 127.556 778.567 127.378C777.204 127.2 775.841 126.993 774.478 126.756C775.189 130.311 776.937 133.215 779.722 135.467C782.567 137.659 786.181 138.756 790.567 138.756C793.944 138.756 796.967 138.074 799.633 136.711C802.359 135.348 804.581 133.659 806.3 131.645L809.678 145.511C807.011 147.526 803.989 149.037 800.611 150.045C797.293 151.052 793.826 151.556 790.211 151.556ZM774.122 117.422C777.085 116.77 779.989 116.444 782.833 116.444H792.256C793.915 116.444 795.485 116.504 796.967 116.622C798.448 116.741 799.841 116.948 801.144 117.244C800.256 114.044 798.626 111.526 796.256 109.689C793.944 107.852 791.07 106.933 787.633 106.933C784.374 106.933 781.53 107.882 779.1 109.778C776.73 111.615 775.07 114.163 774.122 117.422Z" fill="white"/>
<path d="M392 236.889V196.889H405.333C408.741 196.889 411.763 197.452 414.4 198.578C417.067 199.674 419.319 201.17 421.156 203.067C422.993 204.933 424.385 207.067 425.333 209.467C426.281 211.867 426.756 214.341 426.756 216.889C426.756 219.437 426.281 221.911 425.333 224.311C424.385 226.711 422.993 228.859 421.156 230.756C419.319 232.622 417.067 234.119 414.4 235.245C411.763 236.341 408.741 236.889 405.333 236.889H392ZM398.4 231.022H404.711C407.378 231.022 409.659 230.622 411.556 229.822C413.481 228.993 415.067 227.896 416.311 226.533C417.556 225.17 418.474 223.659 419.067 222C419.659 220.311 419.956 218.607 419.956 216.889C419.956 215.17 419.659 213.482 419.067 211.822C418.474 210.133 417.556 208.607 416.311 207.245C415.067 205.882 413.481 204.8 411.556 204C409.659 203.17 407.378 202.756 404.711 202.756H398.4V231.022Z" fill="white"/>
<path d="M432.961 236.889V210.222H439.228V236.889H432.961ZM436.117 205.911C435.08 205.911 434.206 205.556 433.494 204.845C432.783 204.104 432.428 203.23 432.428 202.222C432.428 201.156 432.783 200.282 433.494 199.6C434.235 198.889 435.109 198.533 436.117 198.533C437.183 198.533 438.057 198.889 438.739 199.6C439.45 200.311 439.806 201.185 439.806 202.222C439.806 203.259 439.45 204.133 438.739 204.845C438.028 205.556 437.154 205.911 436.117 205.911Z" fill="white"/>
<path d="M454.3 237.6C452.7 237.6 451.041 237.333 449.323 236.8C447.634 236.237 446.256 235.393 445.189 234.267L446.789 228C447.649 229.274 448.789 230.341 450.212 231.2C451.634 232.059 453.115 232.489 454.656 232.489C455.93 232.489 456.863 232.207 457.456 231.645C458.049 231.082 458.345 230.4 458.345 229.6C458.345 228.711 458.034 228.059 457.411 227.645C456.789 227.2 456.197 226.874 455.634 226.667L451.945 225.289C451.204 224.993 450.33 224.578 449.323 224.045C448.345 223.482 447.486 222.696 446.745 221.689C446.004 220.682 445.634 219.363 445.634 217.733C445.634 216.252 445.989 214.889 446.7 213.645C447.441 212.4 448.493 211.407 449.856 210.667C451.219 209.896 452.849 209.511 454.745 209.511C456.374 209.511 457.96 209.793 459.5 210.356C461.071 210.919 462.3 211.674 463.189 212.622L461.634 218.8C460.774 217.496 459.693 216.474 458.389 215.733C457.115 214.993 455.841 214.622 454.567 214.622C453.471 214.622 452.641 214.889 452.078 215.422C451.515 215.956 451.234 216.578 451.234 217.289C451.234 217.822 451.426 218.326 451.811 218.8C452.197 219.245 452.819 219.63 453.678 219.956L457.189 221.289C458.019 221.585 458.952 222.015 459.989 222.578C461.056 223.141 461.974 223.941 462.745 224.978C463.515 226.015 463.9 227.422 463.9 229.2C463.9 231.689 462.997 233.719 461.189 235.289C459.411 236.83 457.115 237.6 454.3 237.6Z" fill="white"/>
<path d="M482.271 237.6C479.634 237.6 477.234 236.978 475.071 235.733C472.908 234.459 471.189 232.756 469.915 230.622C468.641 228.489 468.004 226.133 468.004 223.556C468.004 220.948 468.641 218.593 469.915 216.489C471.189 214.356 472.908 212.667 475.071 211.422C477.234 210.148 479.634 209.511 482.271 209.511C484.138 209.511 485.9 209.837 487.56 210.489C489.249 211.111 490.73 212 492.004 213.156L490.271 220.133C489.53 218.8 488.478 217.659 487.115 216.711C485.752 215.733 484.182 215.245 482.404 215.245C480.863 215.245 479.456 215.63 478.182 216.4C476.938 217.141 475.945 218.133 475.204 219.378C474.493 220.622 474.137 222.015 474.137 223.556C474.137 225.067 474.493 226.459 475.204 227.733C475.945 228.978 476.938 229.985 478.182 230.756C479.456 231.496 480.863 231.867 482.404 231.867C484.182 231.867 485.752 231.393 487.115 230.445C488.478 229.496 489.53 228.341 490.271 226.978L492.004 233.956C490.73 235.111 489.249 236.015 487.56 236.667C485.9 237.289 484.138 237.6 482.271 237.6Z" fill="white"/>
<path d="M509.538 237.6C506.93 237.6 504.545 236.978 502.382 235.733C500.219 234.459 498.501 232.756 497.227 230.622C495.953 228.489 495.316 226.133 495.316 223.556C495.316 220.948 495.953 218.593 497.227 216.489C498.501 214.356 500.219 212.667 502.382 211.422C504.545 210.148 506.93 209.511 509.538 209.511C512.175 209.511 514.56 210.148 516.693 211.422C518.856 212.667 520.575 214.356 521.849 216.489C523.123 218.593 523.76 220.948 523.76 223.556C523.76 226.133 523.123 228.489 521.849 230.622C520.575 232.756 518.856 234.459 516.693 235.733C514.56 236.978 512.175 237.6 509.538 237.6ZM509.538 231.867C511.049 231.867 512.427 231.496 513.671 230.756C514.916 229.985 515.893 228.978 516.605 227.733C517.345 226.489 517.716 225.096 517.716 223.556C517.716 222.015 517.345 220.622 516.605 219.378C515.893 218.133 514.916 217.141 513.671 216.4C512.427 215.63 511.049 215.245 509.538 215.245C508.027 215.245 506.649 215.63 505.405 216.4C504.16 217.141 503.168 218.133 502.427 219.378C501.716 220.622 501.36 222.015 501.36 223.556C501.36 225.096 501.716 226.489 502.427 227.733C503.168 228.978 504.145 229.985 505.36 230.756C506.605 231.496 507.997 231.867 509.538 231.867Z" fill="white"/>
<path d="M529.354 236.889V210.222H535.043V214.933C535.991 213.393 537.206 212.178 538.688 211.289C540.168 210.4 541.932 209.956 543.976 209.956L545.398 215.778C544.835 215.6 544.198 215.511 543.487 215.511C541.116 215.511 539.206 216.267 537.754 217.778C536.332 219.289 535.62 221.452 535.62 224.267V236.889H529.354Z" fill="white"/>
<path d="M560.462 237.422C558.003 237.422 555.766 236.8 553.751 235.556C551.737 234.311 550.122 232.637 548.907 230.533C547.722 228.43 547.129 226.104 547.129 223.556C547.129 221.007 547.722 218.682 548.907 216.578C550.122 214.474 551.737 212.8 553.751 211.556C555.766 210.311 558.003 209.689 560.462 209.689C562.033 209.689 563.5 209.956 564.863 210.489C566.255 210.993 567.5 211.704 568.596 212.622V194.222H574.863V236.889H569.307V233.822C568.211 234.948 566.892 235.837 565.351 236.489C563.84 237.111 562.211 237.422 560.462 237.422ZM561.218 231.822C562.7 231.822 564.048 231.452 565.262 230.711C566.507 229.97 567.485 228.978 568.196 227.733C568.937 226.489 569.307 225.096 569.307 223.556C569.307 222.045 568.937 220.667 568.196 219.422C567.485 218.148 566.522 217.141 565.307 216.4C564.092 215.659 562.729 215.289 561.218 215.289C559.737 215.289 558.374 215.659 557.129 216.4C555.914 217.141 554.937 218.133 554.196 219.378C553.485 220.622 553.129 222.015 553.129 223.556C553.129 225.067 553.485 226.459 554.196 227.733C554.937 228.978 555.914 229.97 557.129 230.711C558.344 231.452 559.707 231.822 561.218 231.822Z" fill="white"/>
<path d="M578.264 243.556C579.568 241.807 580.634 239.778 581.464 237.467C582.294 235.185 582.708 232.548 582.708 229.556H588.842C588.842 232.193 588.501 234.682 587.819 237.022C587.138 239.393 586.145 241.57 584.842 243.556H578.264Z" fill="white"/>
<path d="M606.903 250.222L615.658 232.667L604.592 210.222H611.569L616.769 220.889C617.244 221.837 617.673 222.756 618.058 223.645C618.444 224.504 618.814 225.452 619.169 226.489C619.525 225.452 619.895 224.504 620.281 223.645C620.695 222.756 621.14 221.837 621.614 220.889L626.903 210.222H633.569L613.658 250.222H606.903Z" fill="white"/>
<path d="M648.851 237.6C646.244 237.6 643.859 236.978 641.696 235.733C639.533 234.459 637.814 232.756 636.54 230.622C635.266 228.489 634.629 226.133 634.629 223.556C634.629 220.948 635.266 218.593 636.54 216.489C637.814 214.356 639.533 212.667 641.696 211.422C643.859 210.148 646.244 209.511 648.851 209.511C651.488 209.511 653.874 210.148 656.007 211.422C658.17 212.667 659.888 214.356 661.163 216.489C662.437 218.593 663.074 220.948 663.074 223.556C663.074 226.133 662.437 228.489 661.163 230.622C659.888 232.756 658.17 234.459 656.007 235.733C653.874 236.978 651.488 237.6 648.851 237.6ZM648.851 231.867C650.362 231.867 651.74 231.496 652.985 230.756C654.229 229.985 655.207 228.978 655.918 227.733C656.659 226.489 657.029 225.096 657.029 223.556C657.029 222.015 656.659 220.622 655.918 219.378C655.207 218.133 654.229 217.141 652.985 216.4C651.74 215.63 650.362 215.245 648.851 215.245C647.34 215.245 645.962 215.63 644.718 216.4C643.474 217.141 642.481 218.133 641.74 219.378C641.029 220.622 640.674 222.015 640.674 223.556C640.674 225.096 641.029 226.489 641.74 227.733C642.481 228.978 643.459 229.985 644.674 230.756C645.918 231.496 647.311 231.867 648.851 231.867Z" fill="white"/>
<path d="M678.889 237.6C677.022 237.6 675.274 237.141 673.644 236.222C672.015 235.304 670.681 233.97 669.644 232.222C668.637 230.474 668.133 228.356 668.133 225.867V210.222H674.4V225.022C674.4 226.83 674.933 228.43 676 229.822C677.096 231.185 678.622 231.867 680.578 231.867C682.178 231.867 683.6 231.289 684.844 230.133C686.119 228.978 686.756 227.319 686.756 225.156V210.222H693.022V236.889H687.289V233.333C686.311 234.726 685.081 235.793 683.6 236.533C682.148 237.245 680.578 237.6 678.889 237.6Z" fill="white"/>
<path d="M700.229 236.889V210.222H705.918V214.933C706.866 213.393 708.081 212.178 709.562 211.289C711.044 210.4 712.807 209.956 714.851 209.956L716.273 215.778C715.71 215.6 715.074 215.511 714.362 215.511C711.992 215.511 710.081 216.267 708.629 217.778C707.207 219.289 706.495 221.452 706.495 224.267V236.889H700.229Z" fill="white"/>
<path d="M743.969 238.222L730.592 210.222H737.481L742.236 220.267C742.681 221.185 743.11 222.133 743.525 223.111C743.94 224.059 744.355 225.2 744.769 226.533C745.214 225.23 745.658 224.119 746.103 223.2C746.547 222.282 746.977 221.363 747.392 220.445L752.592 209.156L757.836 220.445C758.251 221.333 758.666 222.237 759.081 223.156C759.525 224.074 759.955 225.2 760.369 226.533C760.784 225.141 761.199 223.985 761.614 223.067C762.058 222.119 762.488 221.185 762.903 220.267L767.703 210.222H774.236L760.858 238.222L755.081 227.156C754.607 226.237 754.147 225.319 753.703 224.4C753.288 223.452 752.858 222.385 752.414 221.2C751.999 222.385 751.569 223.452 751.125 224.4C750.681 225.319 750.206 226.237 749.703 227.156L743.969 238.222Z" fill="white"/>
<path d="M788.605 237.422C786.175 237.422 783.953 236.8 781.938 235.556C779.923 234.311 778.308 232.637 777.093 230.533C775.908 228.43 775.316 226.104 775.316 223.556C775.316 221.007 775.908 218.682 777.093 216.578C778.308 214.474 779.923 212.8 781.938 211.556C783.953 210.311 786.175 209.689 788.605 209.689C790.382 209.689 792.027 210.015 793.538 210.667C795.079 211.289 796.397 212.178 797.493 213.333V210.222H803.049V236.889H797.493V233.778C796.397 234.904 795.079 235.793 793.538 236.445C792.027 237.096 790.382 237.422 788.605 237.422ZM789.405 231.822C790.886 231.822 792.234 231.452 793.449 230.711C794.693 229.97 795.671 228.978 796.382 227.733C797.123 226.489 797.493 225.096 797.493 223.556C797.493 222.045 797.123 220.667 796.382 219.422C795.671 218.148 794.708 217.141 793.493 216.4C792.279 215.659 790.916 215.289 789.405 215.289C787.923 215.289 786.56 215.659 785.316 216.4C784.101 217.141 783.123 218.133 782.382 219.378C781.671 220.622 781.316 222.015 781.316 223.556C781.316 225.067 781.671 226.459 782.382 227.733C783.123 228.978 784.101 229.97 785.316 230.711C786.53 231.452 787.893 231.822 789.405 231.822Z" fill="white"/>
<path d="M809.34 250.222L818.096 232.667L807.029 210.222H814.007L819.207 220.889C819.681 221.837 820.111 222.756 820.496 223.645C820.881 224.504 821.251 225.452 821.607 226.489C821.962 225.452 822.333 224.504 822.718 223.645C823.133 222.756 823.577 221.837 824.051 220.889L829.34 210.222H836.007L816.096 250.222H809.34Z" fill="white"/>
<path d="M840.003 237.6C838.847 237.6 837.869 237.2 837.069 236.4C836.269 235.6 835.869 234.622 835.869 233.467C835.869 232.282 836.269 231.304 837.069 230.533C837.869 229.733 838.847 229.333 840.003 229.333C841.218 229.333 842.21 229.733 842.981 230.533C843.781 231.333 844.181 232.311 844.181 233.467C844.181 234.622 843.781 235.6 842.981 236.4C842.21 237.2 841.218 237.6 840.003 237.6Z" fill="white"/>
<path fill-rule="evenodd" clip-rule="evenodd" d="M290.018 85.8593C289.198 84.7073 288.569 83.4188 288.328 82.0258L285.523 65.8683C282.181 48.0371 265.683 35.7705 247.639 37.6994L228.253 40.7958C226.063 41.1457 224.116 42.3892 222.878 44.2296L209.042 64.7913C207.802 66.6347 205.851 67.8792 203.656 68.2267L113.322 82.5343C110.533 82.9759 107.719 81.9152 105.915 79.7431L94.6025 66.1175C92.7967 63.9426 89.9771 62.8821 87.1856 63.328L39.7278 70.9082C24.3527 72.5585 12.0861 84.1124 9.26978 99L9.25759 99.0647C9.0714 100.059 8.92736 101.069 8.82738 102.091C8.76812 102.697 8.79795 103.31 8.89295 103.911L9.73614 109.248L24.4033 202.09C27.1144 221.37 43.5233 235.762 62.9899 235.984C69.0077 236.055 73.9944 236.135 75.9944 236.224L160.288 240.339L160.088 240.605C156.895 244.851 152.981 250.056 152.981 255.61V256.073C152.981 270.126 168.723 283.273 182.786 283.273H247.514C254.27 283.273 260.741 279.717 265.514 274.935L304.839 235.184C310.021 229.993 312.723 222.597 312.234 215.273L295.899 106.81L294.688 98.766C294.372 94.0776 292.71 89.6425 290.018 85.8593ZM84.5458 137.592L139.983 152.446C139.994 152.788 140 153.132 140 153.477C140 170.045 126.568 183.477 110 183.477C93.4314 183.477 80 170.045 80 153.477C80 147.643 81.665 142.198 84.5458 137.592ZM180.019 152.4L235.429 137.553C238.325 142.168 240 147.627 240 153.477C240 170.045 226.568 183.477 210 183.477C193.431 183.477 180 170.045 180 153.477C180 153.116 180.006 152.757 180.019 152.4Z" fill="white"/>
</svg>
